<?xml version="1.0" encoding="UTF-8" standalone="no"?>
<!-- Created with Inkscape (http://www.inkscape.org/) -->

<svg
   xmlns:dc="http://purl.org/dc/elements/1.1/"
   xmlns:cc="http://creativecommons.org/ns#"
   xmlns:rdf="http://www.w3.org/1999/02/22-rdf-syntax-ns#"
   xmlns:svg="http://www.w3.org/2000/svg"
   xmlns="http://www.w3.org/2000/svg"
   xmlns:sodipodi="http://sodipodi.sourceforge.net/DTD/sodipodi-0.dtd"
   xmlns:inkscape="http://www.inkscape.org/namespaces/inkscape"
   width="540"
   height="540"
   id="svg4420"
   version="1.1"
   inkscape:version="0.48.4 r9939"
   sodipodi:docname="git-id-punchout.svg">
  <defs
     id="defs4422" />
  <sodipodi:namedview
     id="base"
     pagecolor="#ffffff"
     bordercolor="#666666"
     borderopacity="1.0"
     inkscape:pageopacity="0.0"
     inkscape:pageshadow="2"
     inkscape:zoom="0.95000001"
     inkscape:cx="360.67669"
     inkscape:cy="254.18147"
     inkscape:document-units="px"
     inkscape:current-layer="g4367"
     showgrid="false"
     inkscape:window-width="1366"
     inkscape:window-height="744"
     inkscape:window-x="0"
     inkscape:window-y="24"
     inkscape:window-maximized="1" />
  <metadata
     id="metadata4425">
    <rdf:RDF>
      <cc:Work
         rdf:about="">
        <dc:format>image/svg+xml</dc:format>
        <dc:type
           rdf:resource="http://purl.org/dc/dcmitype/StillImage" />
        <dc:title />
      </cc:Work>
    </rdf:RDF>
  </metadata>
  <g
     inkscape:label="Layer 1"
     inkscape:groupmode="layer"
     id="layer1"
     transform="translate(0,-512.36218)">
    <g
       transform="matrix(1.0000114,0,0,1.0000114,1.7000197e-6,-0.01202114)"
       id="g4367">
      <path
         style="fill:#ffffff;fill-opacity:1"
         d="M 270 7 C 264.88762 7 259.76112 8.9576282 255.84375 12.875 L 220.4375 48.28125 L 238.0625 47.96875 L 256.03125 47.65625 L 274 65.6875 C 300.44159 92.195472 320.3356 106.15668 342.75 113.875 C 351.7721 116.98173 354.25679 117.36498 366.0625 117.78125 L 379.28125 118.25 L 378.65625 120.875 C 377.74329 124.78035 373.63203 132.82382 370.71875 136.34375 C 369.30578 138.05093 365.7049 141.10892 362.75 143.125 L 357.375 146.8125 L 364.09375 150.53125 C 375.46096 156.84323 382.49583 161.97538 390.03125 169.46875 C 410.2656 189.59018 410.34822 214.44619 390.3125 242.625 C 385.52339 249.36056 364.89735 271.71932 363.46875 271.71875 C 363.12876 271.71862 362.8337 265.77422 362.8125 258.5 C 362.779 246.95049 362.4703 244.62877 360.5 240.28125 C 356.37888 231.18793 351.45084 227.8125 342.375 227.8125 C 338.76906 227.8125 335.68049 228.65547 331.53125 230.75 C 320.73301 236.20093 312.26034 237.28125 281 237.28125 C 265.62777 237.28125 246.27496 236.68916 238.03125 235.96875 C 224.97891 234.82812 222.13771 234.86214 215.78125 236.1875 C 173.7176 244.95803 171.39559 280.08354 208.9375 340.09375 L 216.4375 352.09375 L 211.46875 352.40625 C 204.77146 352.81578 197.30969 351.13596 189.6875 347.53125 C 186.21393 345.88851 183.18433 344.72192 182.96875 344.9375 C 182.75319 345.15308 185.04537 347.55233 188.03125 350.28125 C 194.80054 356.46801 206.37391 362.55871 218.09375 366.0625 C 223.03482 367.5397 227.77024 368.99275 228.59375 369.28125 C 230.63826 369.99751 225.65836 372.01724 213.71875 375.34375 C 204.96425 377.78285 202.56578 377.992 186.15625 378 C 169.67412 378.008 167.29475 377.78658 157.4375 375.21875 C 132.02455 368.59867 110.26503 357.01816 84.875 336.53125 C 78.808191 331.63602 73.875 328.00663 73.875 328.5 C 73.875 330.24185 77.879316 342.38389 80.875 349.6875 L 82.59375 353.84375 L 255.84375 527.125 C 263.67849 534.95974 276.32151 534.95974 284.15625 527.125 L 527.125 284.15625 C 534.95974 276.32151 534.95974 263.67849 527.125 255.84375 L 284.15625 12.875 C 280.23888 8.9576282 275.11238 7 270 7 z M 214.53125 55.84375 C 213.65223 55.943421 212.35046 56.710521 210.375 58.34375 L 192.0625 76.65625 L 200.625 78.34375 C 205.58923 79.318681 212.69484 81.239794 216.375 82.625 C 222.65981 84.990597 223.12391 85.031749 224.3125 83.40625 C 226.06778 81.005773 225.91066 79.112563 223.59375 75.3125 C 221.15608 71.314364 221.15064 71.09375 223.40625 71.09375 C 225.68673 71.09375 230.54942 76.180121 234.03125 82.25 C 237.34582 88.028306 251.4494 101.57615 262.21875 109.28125 C 272.48479 116.62624 286.52548 124.02191 299.625 128.96875 C 308.70658 132.39828 309.63056 132.9591 307.5 133.75 C 305.32759 134.55642 305.8431 134.92011 312.5 137.3125 C 316.57483 138.77693 322.6122 140.59897 325.90625 141.375 C 334.00283 143.28246 334.47868 143.27718 341.09375 140.8125 C 352.72776 136.4778 364.6496 127 358.46875 127 C 353.49403 127 336.0835 121.53315 326.59375 117 C 312.9094 110.46314 299.7428 101.62512 285.96875 89.78125 C 275.49946 80.779027 261.59136 66.831538 257.1875 60.875 C 255.2153 58.20747 254.87842 58.125 245.84375 58.125 C 240.70977 58.125 232.14369 57.665987 226.8125 57.09375 C 221.48131 56.521513 216.10829 55.957771 214.875 55.84375 C 214.77175 55.83475 214.64846 55.83045 214.53125 55.84375 z M 190.6875 78.03125 L 154.1875 114.53125 L 160.5 116.53125 C 168.10645 118.96432 179.19343 124.45765 174.1875 123.3125 C 172.54048 122.93572 165.48875 122.5953 158.5 122.5625 L 146.21875 122.5 L 139.46875 129.25 L 141.71875 134.6875 C 144.59687 141.67906 150.33538 151.22074 156.84375 159.875 C 159.50179 163.40943 161.48808 166.51193 161.25 166.75 C 160.48331 167.51671 151.49457 161.73914 147.03125 157.625 C 144.64919 155.42929 141.08093 151.47701 139.125 148.8125 C 137.16908 146.148 135.12058 144.23691 134.59375 144.5625 C 132.34833 145.95024 136.62489 162.75466 141.8125 173.03125 C 143.42531 176.22623 144.75 179.11228 144.75 179.4375 C 144.75 179.76271 141.99937 178.09507 138.65625 175.75 C 131.81661 170.95227 124.44517 163.28839 120.15625 156.5 C 118.57363 153.99507 116.94134 152.05132 116.53125 152.1875 L 12.875 255.84375 C 5.0402565 263.67849 5.0402565 276.32151 12.875 284.15625 L 63.8125 335.0625 L 61.875 329.71875 C 60.193401 325.10328 58.156519 318.27768 57.375 314.5625 C 55.453238 305.42672 54.337685 290.87907 55.65625 292.1875 C 56.209506 292.73652 60.018373 297.24643 64.125 302.1875 C 95.059913 339.40832 131.04176 359.8135 176.59375 366.03125 C 186.55082 367.39038 193.65625 367.84585 193.65625 367.125 C 193.65625 366.89455 190.38657 364.3291 186.40625 361.4375 C 178.00772 355.33615 164.94781 342.579 158.875 334.5 C 154.71468 328.96532 145.75 313.90004 145.75 312.46875 C 145.75 312.06474 150.34143 315.45332 155.96875 319.96875 C 161.59725 324.48512 170.01997 330.05263 174.6875 332.375 C 183.05174 336.53669 192.07347 339.52027 193.125 338.46875 C 193.42126 338.17249 190.9956 332.34398 187.75 325.53125 C 169.01381 286.20284 166.79049 256.99221 181.28125 240.875 C 188.58966 232.74629 201.39914 226.73574 214.53125 225.25 C 223.74593 224.20749 223.79595 223.94593 216.125 215.375 C 208.59649 206.96321 197.71846 197.82135 189.1875 192.71875 C 186.14577 190.89941 183.65625 189.14462 183.65625 188.8125 C 183.65625 187.73159 200.38562 174.89854 211.375 167.5625 C 222.9673 159.82399 244.93812 148.32099 258.46875 142.875 C 264.85153 140.30599 266.3147 139.38255 264.40625 139.15625 C 258.6731 138.47642 246.2134 142.15445 228.59375 149.6875 C 225.46213 151.02639 234.52214 141.28647 239.875 137.5625 L 245.46875 133.65625 L 239.40625 130.09375 C 231.25309 125.28278 220.98144 114.07597 216.28125 104.90625 C 211.61668 95.806046 203.06034 85.928903 195.84375 81.3125 L 190.6875 78.03125 z M 235.96875 102.8125 C 235.70055 102.8418 235.5605 102.96528 235.5625 103.21875 C 235.5849 106.22079 240.56299 114.85788 243.6875 117.34375 C 251.0007 123.16217 255.49786 118.25874 249.1875 111.34375 C 245.64988 107.46717 237.84617 102.60758 235.96875 102.8125 z M 291.53125 139.96875 C 287.42005 139.96875 264.81675 148.19745 251.875 154.40625 C 237.30699 161.39526 224.59157 168.65687 208.25 179.25 L 197.40625 186.25 L 199.90625 188.3125 C 201.27644 189.44244 205.8559 193.08095 210.125 196.375 C 214.3941 199.66905 222.19505 206.67343 227.46875 211.9375 L 237.0625 221.5 L 247.84375 223.21875 C 273.29553 227.33449 297.38109 227.05431 315.65625 222.40625 C 325.44861 219.91569 339.375 214.18708 339.375 212.65625 C 339.375 210.89326 320.78891 202.91325 310.9375 200.4375 C 294.68447 196.35297 279.21909 194.73835 255.03125 194.65625 C 235.60946 194.59025 233.5456 194.44152 237.25 193.3125 C 250.05994 189.40833 277.14153 189.00975 299.46875 192.40625 C 322.68058 195.9373 358.79884 205.22032 365.28125 209.3125 C 371.23855 213.07318 374.22719 218.25905 374.90625 225.90625 C 375.21911 229.42956 375.03403 234.27777 374.46875 236.71875 C 373.90349 239.15973 373.66475 241.52743 373.9375 241.96875 C 375.12275 243.88654 377.28012 242.36501 381.65625 236.53125 C 384.23019 233.09995 388.20899 226.56432 390.5 222 C 394.2338 214.56123 394.70383 212.80331 395.0625 205.03125 C 395.65518 192.18835 393.38348 186.82227 382.90625 176.4375 C 371.57462 165.2059 356.04185 157.18599 330.40625 149.34375 C 317.90072 145.51816 294.89354 139.96875 291.53125 139.96875 z M 312.625 148.96875 C 312.805 148.96175 313.00967 148.96875 313.25 148.96875 C 319.41025 148.96875 334.63491 155.92456 338.40625 160.46875 C 339.80613 162.1555 340.175 162.14464 330.40625 160.78125 C 326.8377 160.28319 322.02079 160.09234 319.6875 160.375 C 315.50445 160.88175 315.4375 160.84053 315.4375 157.8125 C 315.4375 156.12348 314.5104 153.43827 313.375 151.84375 C 311.60236 149.35426 311.36503 149.01795 312.625 148.96875 z M 337.59375 250 C 343.27105 250 347.875 254.58902 347.875 260.25 C 347.875 265.91098 343.27105 270.5 337.59375 270.5 C 331.91645 270.5 327.3125 265.91098 327.3125 260.25 C 327.3125 254.58902 331.91645 250 337.59375 250 z M 269.65625 277.5 C 296.24261 277.5 317.78125 298.99003 317.78125 325.5 C 317.78125 325.75178 317.754 325.99914 317.75 326.25 L 317.8125 326.25 L 317.8125 401.25 L 317.78125 401.25 C 317.64552 427.64434 296.15854 449 269.65625 449 C 243.0699 449 221.5 427.51 221.5 401 C 221.5 395.33902 226.10395 390.75 231.78125 390.75 C 237.45854 390.75 242.0625 395.33902 242.0625 401 C 242.0625 416.18797 254.42449 428.5 269.65625 428.5 C 284.80344 428.5 297.08267 416.32158 297.21875 401.25 L 297.21875 401 L 297.21875 364.84375 C 289.40735 370.29854 279.91661 373.5 269.65625 373.5 C 243.06989 373.5 221.5 352.00997 221.5 325.5 C 221.5 298.99003 243.06989 277.5 269.65625 277.5 z M 337.3125 277.5 L 337.875 277.5 C 343.415 277.5 347.875 281.96 347.875 287.5 L 347.875 363.5 C 347.875 369.04 343.415 373.5 337.875 373.5 L 337.3125 373.5 C 331.7725 373.5 327.3125 369.04 327.3125 363.5 L 327.3125 287.5 C 327.3125 281.96 331.7725 277.5 337.3125 277.5 z M 367.40625 277.5 L 367.96875 277.5 C 373.34085 277.5 377.67837 281.69439 377.9375 287 L 378.21875 287 C 383.75875 287 388.21875 291.46 388.21875 297 L 388.21875 297.5 C 388.21875 303.04 383.75875 307.5 378.21875 307.5 L 377.96875 307.5 L 377.96875 353 L 385.5 353 C 391.04 353 395.5 357.46 395.5 363 L 395.5 363.5 C 395.5 369.04 391.04 373.5 385.5 373.5 L 367.40625 373.5 C 361.86625 373.5 357.40625 369.04 357.40625 363.5 L 357.40625 363 L 357.40625 297.5 L 357.40625 297 L 357.40625 287.5 C 357.40625 281.96 361.86625 277.5 367.40625 277.5 z M 269.65625 298 C 254.42449 298 242.0625 310.312 242.0625 325.5 C 242.0625 340.688 254.42449 353 269.65625 353 C 284.88802 353 297.21875 340.688 297.21875 325.5 C 297.21875 310.312 284.88802 298 269.65625 298 z M 352.78125 377.59375 C 354.17518 377.59377 355.30047 378.59641 356.15625 380.59375 C 357.01201 382.57246 357.43749 385.18948 357.4375 388.4375 C 357.43749 391.46154 357.00319 393.98398 356.15625 396 C 355.31812 397.99736 354.19282 399 352.78125 399 C 351.37849 399 350.2532 397.99736 349.40625 396 C 348.5593 394.00265 348.15625 391.44854 348.15625 388.3125 C 348.15625 385.17648 348.5593 382.59112 349.40625 380.59375 C 350.26202 378.59641 351.39613 377.59377 352.78125 377.59375 z M 381.0625 377.59375 C 381.39775 377.59377 381.72246 377.65669 382.03125 377.75 C 382.34885 377.84335 382.7096 378.0451 383.0625 378.34375 C 383.41539 378.62377 383.71289 379.0021 383.96875 379.46875 C 384.22459 379.91677 384.42612 380.52243 384.59375 381.34375 C 384.77019 382.14644 384.87499 383.09225 384.875 384.15625 L 383 384.15625 C 382.92941 382.02824 382.27924 380.96877 381 380.96875 C 380.4883 380.96877 380.08121 381.1896 379.78125 381.65625 C 379.48129 382.10427 379.3125 382.73467 379.3125 383.5 C 379.3125 384.24669 379.43165 384.78293 379.6875 385.15625 C 379.94335 385.51093 380.45046 385.85759 381.15625 386.15625 L 382.65625 386.75 C 383.5473 387.12335 384.18791 387.76025 384.59375 388.65625 C 384.99957 389.5336 385.21874 390.76966 385.21875 392.375 C 385.21874 394.44703 384.85321 396.07399 384.15625 397.25 C 383.45928 398.40735 382.49395 399 381.25 399 C 380.01486 399 379.06314 398.40735 378.375 397.25 C 377.69568 396.09266 377.31176 394.43403 377.25 392.25 L 379.1875 392.25 C 379.22279 393.35135 379.41071 394.20258 379.78125 394.78125 C 380.15179 395.35993 380.67325 395.625 381.34375 395.625 C 381.94367 395.625 382.43717 395.39159 382.78125 394.90625 C 383.13414 394.42092 383.31249 393.76493 383.3125 392.90625 C 383.31249 392.08491 383.17974 391.44801 382.90625 391 C 382.63275 390.552 382.16167 390.19884 381.5 389.9375 L 380.125 389.375 C 379.14571 388.983 378.47715 388.37127 378.0625 387.53125 C 377.64785 386.69125 377.4375 385.4617 377.4375 383.875 C 377.4375 381.87766 377.73979 380.3327 378.375 379.25 C 379.01903 378.14867 379.90677 377.59377 381.0625 377.59375 z M 325 377.9375 L 327 377.9375 L 327 398.34375 L 325 398.34375 L 325 377.9375 z M 329.125 377.9375 L 331.15625 377.9375 L 334.96875 391.84375 L 334.96875 377.9375 L 336.96875 377.9375 L 336.96875 398.34375 L 334.96875 398.34375 L 331.09375 384.25 L 331.09375 398.34375 L 329.125 398.34375 L 329.125 377.9375 z M 339.09375 377.9375 L 342.875 377.9375 C 343.61607 377.93752 344.21109 378.12668 344.6875 378.5 C 345.17272 378.87336 345.57981 379.45993 345.90625 380.28125 C 346.69143 382.25996 347.09374 384.87698 347.09375 388.125 C 347.09374 391.41038 346.69143 394.0274 345.90625 395.96875 C 345.27985 397.55544 344.27775 398.34375 342.875 398.34375 L 339.09375 398.34375 L 339.09375 377.9375 z M 359.03125 377.9375 L 361.0625 377.9375 L 364.875 391.84375 L 364.875 377.9375 L 366.875 377.9375 L 366.875 398.34375 L 364.875 398.34375 L 361 384.25 L 361 398.34375 L 359.03125 398.34375 L 359.03125 377.9375 z M 369 377.9375 L 375.96875 377.9375 L 375.96875 381.4375 L 370.96875 381.4375 L 370.96875 386.0625 L 375.59375 386.0625 L 375.59375 389.5625 L 370.96875 389.5625 L 370.96875 394.84375 L 376.21875 394.84375 L 376.21875 398.34375 L 369 398.34375 L 369 377.9375 z M 386.8125 377.9375 L 388.78125 377.9375 L 388.78125 398.34375 L 386.8125 398.34375 L 386.8125 377.9375 z M 393.40625 377.9375 L 395.625 377.9375 L 398.9375 398.34375 L 396.90625 398.34375 L 396.28125 394.25 L 392.65625 394.25 L 392 398.34375 L 390 398.34375 L 393.40625 377.9375 z M 352.78125 381.1875 C 351.97841 381.18752 351.36023 381.84958 350.875 383.15625 C 350.38977 384.44428 350.125 386.16582 350.125 388.3125 C 350.125 390.4592 350.38977 392.16207 350.875 393.46875 C 351.36023 394.75677 351.97841 395.40625 352.78125 395.40625 C 353.57526 395.40625 354.23351 394.75677 354.71875 393.46875 C 355.2128 392.18074 355.46874 390.49695 355.46875 388.40625 C 355.46874 386.20357 355.20397 384.46295 354.71875 383.15625 C 354.24234 381.84958 353.5929 381.18752 352.78125 381.1875 z M 341.0625 381.4375 L 341.0625 394.84375 L 342.875 394.84375 C 344.36597 394.84375 345.09374 392.61764 345.09375 388.15625 C 345.09374 383.67621 344.36597 381.43752 342.875 381.4375 L 341.0625 381.4375 z M 394.46875 382.75 L 393.21875 390.75 L 395.71875 390.75 L 394.46875 382.75 z "
         id="rect3080-5"
         transform="matrix(0.9999886,0,0,0.9999886,-1.7000003e-6,512.36836)" />
    </g>
  </g>
</svg>
