<?xml version="1.0" encoding="UTF-8" standalone="no"?>
<!-- Created with Inkscape (http://www.inkscape.org/) -->

<svg
   xmlns:osb="http://www.openswatchbook.org/uri/2009/osb"
   xmlns:dc="http://purl.org/dc/elements/1.1/"
   xmlns:cc="http://creativecommons.org/ns#"
   xmlns:rdf="http://www.w3.org/1999/02/22-rdf-syntax-ns#"
   xmlns:svg="http://www.w3.org/2000/svg"
   xmlns="http://www.w3.org/2000/svg"
   xmlns:xlink="http://www.w3.org/1999/xlink"
   xmlns:sodipodi="http://sodipodi.sourceforge.net/DTD/sodipodi-0.dtd"
   xmlns:inkscape="http://www.inkscape.org/namespaces/inkscape"
   width="540"
   height="540"
   id="svg4420"
   version="1.1"
   inkscape:version="0.48.4 r9939"
   sodipodi:docname="git-id-outline.svg">
  <defs
     id="defs4422">
    <linearGradient
       id="linearGradient3807"
       osb:paint="solid">
      <stop
         style="stop-color:#000000;stop-opacity:1;"
         offset="0"
         id="stop3809" />
    </linearGradient>
    <linearGradient
       inkscape:collect="always"
       xlink:href="#linearGradient3807"
       id="linearGradient3811"
       x1="-554.11108"
       y1="744.13246"
       x2="-170.48715"
       y2="744.13246"
       gradientUnits="userSpaceOnUse"
       gradientTransform="translate(-1.5909629,7.001018e-6)" />
  </defs>
  <sodipodi:namedview
     id="base"
     pagecolor="#ffffff"
     bordercolor="#666666"
     borderopacity="1.0"
     inkscape:pageopacity="0.0"
     inkscape:pageshadow="2"
     inkscape:zoom="0.95"
     inkscape:cx="187.26229"
     inkscape:cy="239.18492"
     inkscape:document-units="px"
     inkscape:current-layer="g4367"
     showgrid="false"
     inkscape:window-width="1366"
     inkscape:window-height="744"
     inkscape:window-x="0"
     inkscape:window-y="24"
     inkscape:window-maximized="1" />
  <metadata
     id="metadata4425">
    <rdf:RDF>
      <cc:Work
         rdf:about="">
        <dc:format>image/svg+xml</dc:format>
        <dc:type
           rdf:resource="http://purl.org/dc/dcmitype/StillImage" />
        <dc:title></dc:title>
      </cc:Work>
    </rdf:RDF>
  </metadata>
  <g
     inkscape:label="Layer 1"
     inkscape:groupmode="layer"
     id="layer1"
     transform="translate(0,-512.36218)">
    <g
       transform="matrix(1.0000114,0,0,1.0000114,1.7000197e-6,-0.01202114)"
       id="g4367">
      <path
         inkscape:connector-curvature="0"
         id="path4140"
         d="m 256.03117,560.03132 -17.96875,0.3125 -17.625,0.3125 -10.0625,10.0625 c 1.97544,-1.63321 3.27724,-2.40033 4.15625,-2.5 0.11721,-0.0133 0.2405,-0.009 0.34375,0 1.23328,0.11402 6.60637,0.67777 11.9375,1.25 5.33113,0.57223 13.89733,1.03125 19.03125,1.03125 9.03457,0 9.37157,0.0825 11.34375,2.75 4.40381,5.95647 18.31208,19.90413 28.78125,28.90625 13.77389,11.84373 26.94081,20.68196 40.625,27.21875 9.48964,4.5331 26.90034,10 31.875,10 6.18078,0 -5.74112,9.47785 -17.375,13.8125 -6.61499,2.46465 -7.09101,2.46994 -15.1875,0.5625 -3.29401,-0.77602 -9.33147,-2.59809 -13.40625,-4.0625 -6.65682,-2.39236 -7.17239,-2.75609 -5,-3.5625 2.13054,-0.79089 1.20648,-1.35176 -7.875,-4.78125 -13.09937,-4.94678 -27.14033,-12.34259 -37.40625,-19.6875 -10.76923,-7.70501 -24.87297,-21.25301 -28.1875,-27.03125 -3.48179,-6.06981 -8.34455,-11.15625 -10.625,-11.15625 -2.25558,0 -2.25014,0.22066 0.1875,4.21875 2.31688,3.80002 2.47401,5.6933 0.71875,8.09375 -1.18858,1.62548 -1.65276,1.58432 -7.9375,-0.78125 -3.68012,-1.38519 -10.78583,-3.30633 -15.75,-4.28125 l -8.5625,-1.6875 -1.375,1.375 5.15625,3.28125 c 7.21651,4.61635 15.77298,14.49365 20.4375,23.59375 4.70014,9.16962 14.97193,20.37658 23.125,25.1875 l 6.0625,3.5625 -5.59375,3.90625 c -5.3528,3.72393 -14.41283,13.46387 -11.28125,12.125 17.61945,-7.53296 30.07942,-11.21107 35.8125,-10.53125 1.90843,0.2263 0.44521,1.14977 -5.9375,3.71875 -13.53048,5.44593 -35.50158,16.94908 -47.09375,24.6875 -10.98925,7.33596 -27.71875,20.1691 -27.71875,21.25 0,0.33212 2.48955,2.08693 5.53125,3.90625 8.53086,5.10254 19.40908,14.24456 26.9375,22.65625 7.67086,8.57083 7.62082,8.8325 -1.59375,9.875 -13.13196,1.48572 -25.94167,7.49638 -33.25,15.625 -14.49059,16.11703 -12.26723,45.32829 6.46875,84.65625 3.24556,6.81265 5.67126,12.64124 5.375,12.9375 -1.05152,1.05151 -10.07336,-1.93211 -18.4375,-6.09375 -4.66748,-2.32234 -13.09031,-7.88993 -18.71875,-12.40625 -5.62726,-4.51538 -10.21875,-7.90401 -10.21875,-7.5 0,1.43127 8.96473,16.49663 13.125,22.03125 6.07274,8.07891 19.13282,20.83622 27.53125,26.9375 3.98027,2.89157 7.25,5.45705 7.25,5.6875 0,0.72084 -7.10554,0.26536 -17.0625,-1.09375 -45.55147,-6.21768 -81.534193,-26.62335 -112.468753,-63.84375 -4.10658,-4.94101 -7.9155,-9.45099 -8.46875,-10 -1.31855,-1.30842 -0.20299,13.23932 1.71875,22.375 0.78151,3.71514 2.81842,10.54083 4.5,15.15625 l 1.9375,5.34375 18.78125,18.78125 -1.71875,-4.15625 c -2.99565,-7.30353 -7,-19.44567 -7,-21.1875 0,-0.49336 4.93326,3.13608 11,8.03125 25.389743,20.48668 47.149843,32.0675 72.562503,38.6875 9.85714,2.5678 12.23681,2.78925 28.71875,2.78125 16.40934,-0.008 18.8081,-0.21718 27.5625,-2.65625 11.93947,-3.32647 16.91949,-5.34625 14.875,-6.0625 -0.8235,-0.2885 -5.55899,-1.74157 -10.5,-3.21875 -11.71971,-3.50375 -23.29329,-9.59456 -30.0625,-15.78125 -2.98585,-2.72889 -5.27806,-5.12817 -5.0625,-5.34375 0.21558,-0.21558 3.24522,0.95103 6.71875,2.59375 7.6221,3.60467 15.08404,5.28453 21.78125,4.875 l 4.96875,-0.3125 -7.5,-12 C 171.39594,792.45929 173.718,757.333 215.78117,748.56257 c 6.35639,-1.32534 9.19781,-1.35937 22.25,-0.21875 8.24362,0.7204 27.5967,1.3125 42.96875,1.3125 31.25998,0 39.73313,-1.08038 50.53125,-6.53125 4.14919,-2.09451 7.23785,-2.9375 10.84375,-2.9375 9.07574,0 14.00393,3.37553 18.125,12.46875 1.97028,4.34747 2.279,6.66937 2.3125,18.21875 0.0212,7.27414 0.31626,13.21862 0.65625,13.21875 1.42858,5.7e-4 22.05469,-22.35827 26.84375,-29.09375 20.03549,-28.17849 19.95287,-53.03505 -0.28125,-73.15625 -7.53533,-7.49328 -14.57042,-12.62559 -25.9375,-18.9375 l -6.71875,-3.71875 5.375,-3.6875 c 2.95487,-2.01606 6.5558,-5.07409 7.96875,-6.78125 2.91325,-3.51989 7.02455,-11.56344 7.9375,-15.46875 l 0.625,-2.625 -13.21875,-0.46875 c -11.80558,-0.41627 -14.2905,-0.79956 -23.3125,-3.90625 -22.41414,-7.71823 -42.30871,-21.67983 -68.75,-48.1875 l -17.96875,-18.03125 z m -20.0625,55.15625 c 1.8774,-0.20492 9.68117,4.65471 13.21875,8.53125 6.31029,6.91491 1.81312,11.81835 -5.5,6 -3.12447,-2.48584 -8.1026,-11.12299 -8.125,-14.125 -0.002,-0.25347 0.13805,-0.37695 0.40625,-0.40625 z m -81.78125,11.71875 -7.96875,7.96875 12.28125,0.0625 c 6.98867,0.0328 14.0405,0.37322 15.6875,0.75 5.00587,1.14514 -6.08114,-4.34821 -13.6875,-6.78125 l -6.3125,-2 z m -14.71875,14.71875 -22.9375,22.9375 c 0.41009,-0.13618 2.0424,1.8076 3.625,4.3125 4.28887,6.78831 11.66044,14.45232 18.5,19.25 3.34308,2.34504 6.09375,4.01271 6.09375,3.6875 0,-0.32522 -1.32471,-3.21131 -2.9375,-6.40625 -5.18755,-10.27647 -9.46414,-27.08103 -7.21875,-28.46875 0.52682,-0.32559 2.57535,1.58553 4.53125,4.25 1.95591,2.66448 5.52422,6.61682 7.90625,8.8125 4.46327,4.11409 13.45207,9.8917 14.21875,9.125 0.23808,-0.23807 -1.74824,-3.34061 -4.40625,-6.875 -6.5083,-8.65416 -12.24691,-18.19602 -15.125,-25.1875 l -2.25,-5.4375 z m 152.0625,10.71875 c 3.36225,0 26.36961,5.54945 38.875,9.375 25.63531,7.84215 41.1685,15.86228 52.5,27.09375 10.47711,10.38465 12.74892,15.751 12.15625,28.59375 -0.35867,7.77197 -0.82874,9.53006 -4.5625,16.96875 -2.29098,4.56427 -6.26984,11.09999 -8.84375,14.53125 -4.37608,5.83369 -6.53351,7.35527 -7.71875,5.4375 -0.27275,-0.44131 -0.034,-2.80905 0.53125,-5.25 0.56527,-2.44095 0.75036,-7.28923 0.4375,-10.8125 -0.67905,-7.64711 -3.66777,-12.83311 -9.625,-16.59375 -6.48234,-4.09213 -42.60093,-13.37524 -65.8125,-16.90625 -22.32697,-3.39646 -49.40896,-2.99788 -62.21875,0.90625 -3.70436,1.12901 -1.64032,1.27775 17.78125,1.34375 24.18756,0.0821 39.65341,1.69677 55.90625,5.78125 9.8513,2.47572 28.4375,10.45578 28.4375,12.21875 0,1.53081 -13.9265,7.25947 -23.71875,9.75 -18.27495,4.64801 -42.36101,4.92819 -67.8125,0.8125 l -10.78125,-1.71875 -9.59375,-9.5625 c -5.27364,-5.26401 -13.0747,-12.26849 -17.34375,-15.5625 -4.26905,-3.29401 -8.84858,-6.93257 -10.21875,-8.0625 l -2.5,-2.0625 10.84375,-7 c 16.34138,-10.59301 29.05716,-17.85482 43.625,-24.84375 12.9416,-6.20873 35.5451,-14.4375 39.65625,-14.4375 z m 21.09375,9 c -1.25996,0.0492 -1.02262,0.38554 0.75,2.875 1.13539,1.5945 2.0625,4.27975 2.0625,5.96875 0,3.028 0.067,3.06924 4.25,2.5625 2.33326,-0.28266 7.15024,-0.0918 10.71875,0.40625 9.76864,1.36337 9.39986,1.37423 8,-0.3125 -3.7713,-4.54414 -18.99607,-11.5 -25.15625,-11.5 -0.24033,0 -0.445,-0.007 -0.625,0 z"
         style="fill:#ffffff;fill-opacity:1" />
      <path
         id="path4154"
         d="m 269.65317,789.8652 c -26.58606,0 -48.1557,21.48978 -48.1557,47.99945 0,26.50967 21.56964,47.99945 48.1557,47.99945 10.26024,0 19.75088,-3.20142 27.56219,-8.65615 l 0,36.15584 0,0.25 c -0.13608,15.07141 -12.41517,27.24969 -27.56219,27.24969 -15.23159,0 -27.59343,-12.31189 -27.59343,-27.49969 0,-5.66092 -4.6039,-10.24988 -10.28113,-10.24988 -5.67724,0 -10.28114,4.58896 -10.28114,10.24988 0,26.5097 21.56965,47.99945 48.1557,47.99945 26.50199,0 47.98873,-21.35541 48.12446,-47.74945 l 0.0312,0 0,-74.99915 -0.0625,0 c 0.004,-0.25086 0.0312,-0.49821 0.0312,-0.74999 0,-26.50967 -21.5384,-47.99945 -48.12446,-47.99945 z m 0,20.49976 c 15.2316,0 27.56219,12.31186 27.56219,27.49969 0,15.18783 -12.33059,27.49969 -27.56219,27.49969 -15.23159,0 -27.59343,-12.31186 -27.59343,-27.49969 0,-15.18783 12.36184,-27.49969 27.59343,-27.49969 z"
         style="fill:#ffffff;fill-opacity:1"
         inkscape:connector-curvature="0" />
      <rect
         ry="9.9998865"
         rx="9.9998865"
         style="fill:#ffffff;fill-opacity:1"
         id="rect4180"
         width="20.559076"
         height="96"
         x="327.30396"
         y="789.86224" />
      <path
         sodipodi:type="arc"
         style="fill:#ffffff;fill-opacity:1"
         id="path4213"
         sodipodi:cx="-89.88623"
         sodipodi:cy="939.02734"
         sodipodi:rx="11.531299"
         sodipodi:ry="11.531299"
         d="m -78.354932,939.02734 a 11.531299,11.531299 0 1 1 -23.062598,0 11.531299,11.531299 0 1 1 23.062598,0 z"
         transform="matrix(0.89144673,0,0,0.88888514,417.71228,-62.075219)" />
      <rect
         y="789.86224"
         x="357.39041"
         height="96"
         width="20.559076"
         id="rect4205"
         style="fill:#ffffff;fill-opacity:1"
         rx="9.9998865"
         ry="9.9998865" />
      <rect
         transform="matrix(0,1,-1,0,0,0)"
         y="-395.49991"
         x="865.36224"
         height="38.109509"
         width="20.5"
         id="rect4221"
         style="fill:#ffffff;fill-opacity:1"
         rx="9.9998865"
         ry="9.9998865" />
      <rect
         ry="9.9998865"
         rx="9.9998865"
         style="fill:#ffffff;fill-opacity:1"
         id="rect4227"
         width="20.5"
         height="30.838615"
         x="799.36224"
         y="-388.22903"
         transform="matrix(0,1,-1,0,0,0)" />
      <text
         xml:space="preserve"
         style="font-size:17.87434578px;font-style:normal;font-weight:normal;line-height:125%;letter-spacing:0px;word-spacing:0px;fill:#ffffff;fill-opacity:1;stroke:none;font-family:Sans"
         x="471.2045"
         y="626.09589"
         id="text4286"
         sodipodi:linespacing="125%"
         transform="scale(0.68747484,1.4545987)"><tspan
           sodipodi:role="line"
           id="tspan4288"
           x="471.2045"
           y="626.09589"
           style="font-size:19.24929619px;font-style:normal;font-variant:normal;font-weight:bold;font-stretch:normal;letter-spacing:0px;fill:#ffffff;font-family:FreeSans;-inkscape-font-specification:FreeSans">INDONESIA</tspan></text>
      <rect
         style="fill:none;stroke:#ffffff;stroke-width:4.46177578;stroke-miterlimit:4;stroke-opacity:1;stroke-dasharray:none"
         id="rect3821"
         width="380.36969"
         height="380.36969"
         x="-554.07495"
         y="553.94763"
         rx="19.830116"
         ry="19.830116"
         transform="matrix(0.70710678,-0.70710678,0.70710678,0.70710678,0,0)" />
    </g>
  </g>
</svg>
